<?xml version="1.0" encoding="utf-8"?>
<!-- Generator: Adobe Illustrator 24.3.0, SVG Export Plug-In . SVG Version: 6.00 Build 0)  -->
<svg version="1.1" id="Capa_1" xmlns="http://www.w3.org/2000/svg" xmlns:xlink="http://www.w3.org/1999/xlink" x="0px" y="0px"
	 viewBox="0 0 512 500.5" style="enable-background:new 0 0 512 500.5;" xml:space="preserve">
<style type="text/css">
	.st0{fill:#E2B615;}
</style>
<path class="st0" d="M506.7,183.1c-18.5-56.8-79.4-88-136.4-69.5l-6.2,2c0.1-2.1,0.1-4.2,0.1-6.4C364.2,49.5,315.7,1,256.1,1
	c-59.8,0-108.3,48.3-108.3,108.2v6.6c-2-0.7-4.1-1.5-6.1-2.1C84.9,95.2,23.8,126.4,5.3,183.1C-13.1,240,17.8,301,74.8,319.5l6.2,2
	c-1.3,1.7-2.6,3.4-3.9,5.1C42.1,374.9,52.8,442.7,101,477.7c48.4,35.1,116,24.5,151.2-23.9l3.8-5.3c1.2,1.8,2.4,3.5,3.7,5.3
	c35.1,48.3,102.9,59,151.1,24c48.4-35.1,59.2-102.7,24-151.2l-3.9-5.3c2.1-0.6,4.2-1.2,6.3-1.9C494,300.9,525.1,239.8,506.7,183.1z
	 M393.6,214.3c-21.5,41.9-65.7,67.9-112.8,66.1c-1.6-0.1-3.2-0.1-4.8-0.2c0.4,1.5,0.9,3,1.3,4.6c9.7,34.2,38.7,59.9,73.9,65.5
	c10,1.6,12.7,10.7,12.7,14.7c0,8.7-7.8,16.6-17.7,14.9c-46.5-7.5-84.9-41.5-97.8-86.9c-0.4-1.5-0.9-3-1.3-4.5
	c-1.3,0.9-2.6,1.7-3.9,2.6c-29.5,19.8-45,55.3-39.4,90.5c1.5,9.7-6.3,17.4-14.9,17.4c-4,0-13.4-2.7-14.8-13
	c-7.3-46.5,13.3-93.5,52.4-119.8c1.3-0.9,2.6-1.7,3.9-2.6c-1.2-0.9-2.4-1.9-3.7-2.9c-28-22-66.6-25.7-98.2-9.6
	c-6.3,3.2-13.2,1.5-17.5-2.8c-7.8-7.8-4.5-19.9,4.1-24c42-21.3,93.1-16.3,130.2,12.8c1.3,1,2.5,2,3.7,2.9c0.5-1.4,1.1-2.9,1.6-4.5
	c12.2-33.4,3.9-71.2-21.3-96.4c-6.3-6.3-5.4-15.9,0.1-21.3c5.8-5.8,15.5-5.7,21.3,0.3c33.2,33.4,44.2,83.5,28,127.8
	c-0.5,1.5-1.1,2.9-1.6,4.2c0,0,0,0,0,0.1c1.5,0.1,3.1,0.1,4.7,0.2c35.5,1.3,69-18.3,85.1-50c2.8-5.5,8.4-8.2,13.5-8.2
	C391.2,192.2,399.2,203.9,393.6,214.3z"/>
</svg>
