<?xml version="1.0" encoding="utf-8"?>
<!-- Generator: Adobe Illustrator 25.0.1, SVG Export Plug-In . SVG Version: 6.00 Build 0)  -->
<svg version="1.1" id="dove" xmlns="http://www.w3.org/2000/svg" xmlns:xlink="http://www.w3.org/1999/xlink" x="0px" y="0px"
	 viewBox="0 0 368.7 331.3" style="enable-background:new 0 0 368.7 331.3;" xml:space="preserve">
<style type="text/css">
	.st0{fill:#CCA579;}
</style>
<g>
	<g>
	</g>
	<g>
	</g>
	<g>
	</g>
	<g>
	</g>
	<g>
	</g>
	<g>
	</g>
	<g>
	</g>
	<g>
	</g>
	<g>
	</g>
	<g>
	</g>
	<g>
	</g>
	<g>
	</g>
	<g>
	</g>
	<g>
	</g>
	<g>
	</g>
</g>
<g>
	<g>
	</g>
	<g>
	</g>
	<g>
	</g>
	<g>
	</g>
	<g>
	</g>
	<g>
	</g>
	<g>
	</g>
	<g>
	</g>
	<g>
	</g>
	<g>
	</g>
	<g>
	</g>
	<g>
	</g>
	<g>
	</g>
	<g>
	</g>
	<g>
	</g>
</g>
<path class="st0" d="M333.2,173.3l-13.3-4.3c-0.7-0.2-1.2-0.7-1.4-1.4c-2.9-9.2-7.3-17.9-13-25.8c-2.2-3.1-4.7-6.1-7.4-8.9
	c1.8-8.4,2.7-17.7,2.6-25.7c-0.2-13.6-3.1-21.3-9.1-24.5c-5.5-2.9-16.7-3.9-55.4,13.8c-0.7,0.3-1.4,0.7-2,1.1
	c-1.5-0.4-2.9-0.7-4.4-1.1c2.6-6.8,4.1-14,4.5-21.3c0.1-2.2-0.7-4.2-2.1-5.8c-1.5-1.6-3.5-2.5-5.6-2.6c-2.2-0.1-4.2,0.6-5.8,2.1
	c-1.6,1.5-2.5,3.5-2.6,5.6c-0.6,12.9-5.9,25-15.1,34.1c-5.1,5.1-11.1,9-17.9,11.6c-12.3-1.7-24.8-1.7-37.2,0
	c-6.7-2.6-12.7-6.5-17.9-11.6c-9.7-9.7-15.1-22.7-15.1-36.5s5.4-26.7,15.1-36.5c9.7-9.7,22.7-15.1,36.5-15.1s26.7,5.4,36.5,15.1
	c3.9,3.9,7.2,8.4,9.6,13.3c1,1.9,2.6,3.4,4.7,4c2.1,0.7,4.2,0.5,6.2-0.5c1.9-1,3.4-2.6,4-4.7c0.7-2.1,0.5-4.2-0.5-6.2
	c-3.2-6.4-7.5-12.3-12.6-17.4c-12.8-12.8-29.8-19.8-47.9-19.8c-18.1,0-35.1,7-47.9,19.8C105.8,37,98.7,54,98.7,72.1
	c0,18.1,7,35.1,19.8,47.9c1.9,1.9,3.9,3.7,6,5.4c-0.7,0.2-1.4,0.4-2.1,0.7c-2,0.7-3.7,2.1-4.7,4.1c-1,1.9-1.1,4.1-0.4,6.2
	c0.7,2,2.1,3.7,4.1,4.7c1.9,1,4.1,1.1,6.2,0.4c25-8.4,52.6-8.4,77.6,0c0.8,0.3,1.7,0.4,2.6,0.4c3.5,0,6.6-2.2,7.7-5.5
	c1.4-4.2-0.9-8.8-5.1-10.2c-0.7-0.2-1.4-0.5-2.1-0.7c2.1-1.7,4.1-3.5,6-5.4c2.7-2.7,5.1-5.6,7.4-8.7c0.5,0.1,1.1,0.2,1.6,0.3
	c0.6,0.1,1.2,0.3,1.8,0.4c-1.9,10.4-1.5,19.8,1,27.8c2.6,8,7.2,14.5,13.7,19.3c7.1,5.2,16,8,25.2,8c6.3,0,12.2-1.4,16.7-3.9
	c4-2.3,7.5-6.3,10.3-12.2c0.1,0.1,0.2,0.2,0.3,0.3c4.7,6.4,8.3,13.5,10.7,21.1c1.8,5.7,6.2,10.2,11.9,12l13.3,4.3
	c2.1,0.7,3.5,2.6,3.5,4.8v22c0,2.2-1.4,4.1-3.5,4.8l-21.4,6.9c-4.2,1.4-7.8,4.2-10,8.1c-8.1,14-20.8,25.5-37.9,34.4
	c-3,1.5-5,4.3-5.6,7.6l-6.7,35.2h-20.2l-3.6-19c-1.1-5.7-6.5-9.5-12.2-8.7c-9.4,1.4-19.1,2.1-28.9,2.1c-7.2,0-14.4-0.4-21.2-1.2
	c-5.6-0.6-10.8,3.2-11.9,8.7l-3.4,18H125l-6.4-33.3c-0.6-3.2-2.6-5.9-5.5-7.5c-28.9-15.4-44.2-41.3-44.2-74.6
	c0-16.9,3.7-31.9,10.9-44.4c6.8-11.7,16.7-21.3,29.4-28.7c3.9-2.2,5.2-7.2,3-11.1c-2.2-3.9-7.2-5.2-11.1-3
	c-22.8,13.2-38.1,32.8-44.7,57.3c-3.4-6.9-9.6-11.8-16.1-12.7c-5.9-0.8-11.6,1.7-15.4,6.8c-5.8,7.7-4.2,14-2.7,17.1
	c2.4,4.9,7.5,8.5,15.5,11c-4.4,4.1-9.1,5.2-12.5,5.3c-4.5,0.2-8.1,3.8-8.1,8.3c0,4.4,3.5,8.1,7.9,8.3c0.4,0,0.8,0,1.2,0
	c6.8,0,16.9-2.5,26.4-14.3c0,0,0,0,0,0.1c0,20.3,4.9,38.4,14.4,53.8c8.6,13.8,20.7,25.2,36.1,33.9l6.1,31.7
	c1.3,7,7.5,12.2,14.7,12.2h22.3c7.2,0,13.3-5.1,14.7-12.1l2.7-14.2c5.9,0.5,12,0.8,18.1,0.8c8.8,0,17.6-0.5,26.2-1.6l2.8,15
	c1.3,7,7.5,12.1,14.7,12.1h22.3c7.2,0,13.3-5.1,14.7-12.2l6.4-33.7c18.7-10.2,32.9-23.4,42.1-39.4c0.2-0.4,0.6-0.7,1-0.8l21.4-6.9
	c8.8-2.8,14.7-10.9,14.7-20.2v-22C347.9,184.2,342,176.1,333.2,173.3z M283.8,120.1c-2,17.1-7.1,27.4-9.9,29c-4.6,2.6-16,3-24.4-3.1
	c-10.7-7.9-10.3-22.4-8-33.3c0.1-0.7,0.7-1.3,1.3-1.6c21.9-10,35.3-13.8,40.4-14C284.2,100,285.2,107.7,283.8,120.1z M41.5,173.7
	c-2.2-0.7-3.5-1.4-4.2-1.8c0.1-0.2,0.3-0.4,0.5-0.7c0.2-0.3,0.4-0.4,0.4-0.5C38.8,170.8,40.3,171.7,41.5,173.7z"/>
</svg>
