<?xml version="1.0" encoding="utf-8"?>
<!-- Generator: Adobe Illustrator 25.0.1, SVG Export Plug-In . SVG Version: 6.00 Build 0)  -->
<svg version="1.1" id="dove" xmlns="http://www.w3.org/2000/svg" xmlns:xlink="http://www.w3.org/1999/xlink" x="0px" y="0px"
	 viewBox="0 0 368.7 331.3" style="enable-background:new 0 0 368.7 331.3;" xml:space="preserve">
<style type="text/css">
	.st0{fill:#CCA579;}
</style>
<g>
	<g>
	</g>
	<g>
	</g>
	<g>
	</g>
	<g>
	</g>
	<g>
	</g>
	<g>
	</g>
	<g>
	</g>
	<g>
	</g>
	<g>
	</g>
	<g>
	</g>
	<g>
	</g>
	<g>
	</g>
	<g>
	</g>
	<g>
	</g>
	<g>
	</g>
</g>
<path class="st0" d="M360.1,98.6C354.9,41.5,314.3,0,263.6,0c-32.7,0-62.5,16.6-80.4,44.5C165.6,16.6,136.5,0,104.6,0
	C53.9,0,13.4,41.4,8.1,98.6c-0.4,2.6-2.1,16,3,37.5c7.3,31.1,24.3,59.3,48.9,81.7l123,111.6l125.1-111.6
	c24.7-22.4,41.6-50.6,48.9-81.7C362.1,114.6,360.5,101.2,360.1,98.6z M296.4,204.7l-113.2,101l-111.3-101
	c-22-20-37.1-45.1-43.6-72.7c-4.4-18.7-2.9-29.6-2.8-30.7l0-0.1l0.1-0.7c4.3-48,37.5-82.9,79-82.9c30.6,0,57.6,18.8,70.4,49.2
	l8.1,19.2l8.1-19.2c12.6-29.9,41-49.2,72.4-49.2c41.5,0,74.8,35.1,79.1,83.5l0,0.2c0.2,1.2,1.7,12-2.8,30.8v0
	C333.5,159.6,318.4,184.8,296.4,204.7z"/>
</svg>
