<?xml version="1.0" encoding="utf-8"?>
<!-- Generator: Adobe Illustrator 25.0.1, SVG Export Plug-In . SVG Version: 6.00 Build 0)  -->
<svg version="1.1" id="dove" xmlns="http://www.w3.org/2000/svg" xmlns:xlink="http://www.w3.org/1999/xlink" x="0px" y="0px"
	 viewBox="0 0 368.7 331.3" style="enable-background:new 0 0 368.7 331.3;" xml:space="preserve">
<style type="text/css">
	.st0{fill:#CCA579;}
</style>
<path class="st0" d="M365.6,117.8l-8.7-5.8C322.4,89,276,93.6,246.6,123l-7,7c0,0,0,0,0,0c-3.5,3.5-7.5,6.5-11.9,8.9
	C186.7,97.1,135,4.5,134.4,3.5c-1-1.7-2.6-2.9-4.5-3.4c-1.9-0.4-3.9,0-5.5,1.2C99.3,20.2,91.3,42.5,89.2,59.2
	C77.7,45.1,70.6,35,70.4,34.7c-1.3-1.9-3.6-3-5.9-2.9c-2.3,0.1-4.5,1.4-5.6,3.5c-28.7,51.7-21.1,94.5-9.6,121.4
	c5.8,13.6,13.1,24.5,19.3,32.3C37,182,11.7,159.1,11.5,158.8c-2.2-2-5.4-2.4-8-0.9c-2.6,1.5-3.9,4.5-3.3,7.4
	c8.6,39.3,28.8,73.4,60.1,101.2c45.8,40.7,90.3,61.8,130.1,61.8c6.9,0,13.6-0.6,20.2-1.9c36.4-7,67.2-33.8,89.1-77.6
	c27.2-54.4,67.6-121.1,68-121.8C369.6,123.9,368.7,119.9,365.6,117.8L365.6,117.8z M126.5,17.2c12.6,22,52.2,89.2,87.4,126.9
	c-11.7,2.6-23.9,1.3-34.1-3.9c-28.3-14.2-56.8-42.3-77.6-65.9c0.2-0.7,0.3-1.4,0.3-2.2C101.7,59.8,104.3,37.1,126.5,17.2z
	 M287.4,242.7c-20.2,40.4-46.9,64-79.5,70.3c-40.3,7.7-88.2-11.9-138.6-56.7c-23.9-21.2-40.8-46.3-50.5-74.7
	c15.4,10.3,40,23,67.2,23c2.9,0,5.4-1.8,6.4-4.5c1-2.7,0.2-5.7-1.9-7.6c-0.2-0.2-17.8-15.6-28.9-41.8c-13.4-31.8-12-65.1,4.2-99.2
	c16.5,21.9,61.5,77.6,107.8,100.9c15,7.6,33.2,8.7,49.8,3.2c9.7-3.2,18.7-8.8,25.9-16l7-7c24.8-24.8,63.9-28.7,93.1-9.2l3.2,2.2
	C342.3,142.9,310.3,197,287.4,242.7L287.4,242.7z"/>
</svg>
