<?xml version="1.0" encoding="utf-8"?>
<!-- Generator: Adobe Illustrator 24.3.0, SVG Export Plug-In . SVG Version: 6.00 Build 0)  -->
<svg version="1.1" id="Layer_1" xmlns="http://www.w3.org/2000/svg" xmlns:xlink="http://www.w3.org/1999/xlink" x="0px" y="0px"
	 viewBox="0 0 512 367.3" style="enable-background:new 0 0 512 367.3;" xml:space="preserve">
<style type="text/css">
	.st0{fill:#E2B615;}
</style>
<g>
	<g>
		<path class="st0" d="M459.8,1.9H52.2C26.6,1.9,5.4,21.5,2.9,46.5l219.2,219.2c17.6,17.6,49.2,18.6,69-1.1L509.1,46.5
			C506.6,21.5,485.4,1.9,459.8,1.9z"/>
	</g>
</g>
<g>
	<g>
		<path class="st0" d="M314.4,288c-15.6,15.6-36.5,24.2-58.7,24.2c-21.5,0-42.3-8.4-57-23.1L2.7,93v222.8
			c0,27.3,22.3,49.6,49.6,49.6h407.6c27.3,0,49.6-22.3,49.6-49.6V93L314.4,288z"/>
	</g>
</g>
</svg>
