<?xml version="1.0" encoding="utf-8"?>
<!-- Generator: Adobe Illustrator 25.0.1, SVG Export Plug-In . SVG Version: 6.00 Build 0)  -->
<svg version="1.1" id="Capa_1" xmlns="http://www.w3.org/2000/svg" xmlns:xlink="http://www.w3.org/1999/xlink" x="0px" y="0px"
	 viewBox="0 0 2134.1 406.1" style="enable-background:new 0 0 2134.1 406.1;" xml:space="preserve">
<style type="text/css">
	.st0{fill:#EFBE42;}
</style>
<g>
	<path class="st0" d="M260.1,156c-4.5,0-9.2-3.5-10.6-7.7L205.6,13.1c-1.4-4.3-3.6-4.3-5,0l-43.9,135.2c-1.4,4.3-6.2,7.7-10.6,7.7
		H3.9c-4.5,0-5.2,2.1-1.6,4.8l115,83.5c3.6,2.6,5.5,8.2,4.1,12.5L77.5,391.9c-1.4,4.3,0.4,5.6,4.1,3l115-83.5
		c3.6-2.6,9.5-2.6,13.2,0l115,83.5c3.6,2.6,5.5,1.3,4.1-3l-43.9-135.2c-1.4-4.3,0.4-9.9,4.1-12.5l115-83.5c3.6-2.6,2.9-4.8-1.6-4.8
		L260.1,156L260.1,156z"/>
</g>
<g>
	<path class="st0" d="M692.1,156c-4.5,0-9.2-3.5-10.6-7.7L637.6,13.1c-1.4-4.3-3.6-4.3-5,0l-43.9,135.2c-1.4,4.3-6.2,7.7-10.6,7.7
		H435.9c-4.5,0-5.2,2.1-1.6,4.8l115,83.5c3.6,2.6,5.5,8.2,4.1,12.5l-43.9,135.2c-1.4,4.3,0.4,5.6,4.1,3l115-83.5
		c3.6-2.6,9.5-2.6,13.2,0l115,83.5c3.6,2.6,5.5,1.3,4.1-3l-43.9-135.2c-1.4-4.3,0.4-9.9,4.1-12.5l115-83.5c3.6-2.6,2.9-4.8-1.6-4.8
		L692.1,156L692.1,156z"/>
</g>
<g>
	<path class="st0" d="M1124.1,156c-4.5,0-9.2-3.5-10.6-7.7l-43.9-135.2c-1.4-4.3-3.6-4.3-5,0l-43.9,135.2c-1.4,4.3-6.2,7.7-10.6,7.7
		H867.9c-4.5,0-5.2,2.1-1.6,4.8l115,83.5c3.6,2.6,5.5,8.2,4.1,12.5l-43.9,135.2c-1.4,4.3,0.4,5.6,4.1,3l115-83.5
		c3.6-2.6,9.5-2.6,13.2,0l115,83.5c3.6,2.6,5.5,1.3,4.1-3l-43.9-135.2c-1.4-4.3,0.4-9.9,4.1-12.5l115-83.5c3.6-2.6,2.9-4.8-1.6-4.8
		L1124.1,156L1124.1,156z"/>
</g>
<g>
	<path class="st0" d="M1556.1,156c-4.5,0-9.2-3.5-10.6-7.7l-43.9-135.2c-1.4-4.3-3.6-4.3-5,0l-43.9,135.2c-1.4,4.3-6.2,7.7-10.6,7.7
		h-142.1c-4.5,0-5.2,2.1-1.6,4.8l115,83.5c3.6,2.6,5.5,8.2,4.1,12.5l-43.9,135.2c-1.4,4.3,0.4,5.6,4.1,3l115-83.5
		c3.6-2.6,9.5-2.6,13.2,0l115,83.5c3.6,2.6,5.5,1.3,4.1-3l-43.9-135.2c-1.4-4.3,0.4-9.9,4.1-12.5l115-83.5c3.6-2.6,2.9-4.8-1.6-4.8
		L1556.1,156L1556.1,156z"/>
</g>
<g>
	<path class="st0" d="M1988.1,156c-4.5,0-9.2-3.5-10.6-7.7l-43.9-135.2c-1.4-4.3-3.6-4.3-5,0l-43.9,135.2c-1.4,4.3-6.2,7.7-10.6,7.7
		h-142.1c-4.5,0-5.2,2.1-1.6,4.8l115,83.5c3.6,2.6,5.5,8.2,4.1,12.5l-43.9,135.2c-1.4,4.3,0.4,5.6,4.1,3l115-83.5
		c3.6-2.6,9.5-2.6,13.2,0l115,83.5c3.6,2.6,5.5,1.3,4.1-3l-43.9-135.2c-1.4-4.3,0.4-9.9,4.1-12.5l115-83.5c3.6-2.6,2.9-4.8-1.6-4.8
		L1988.1,156L1988.1,156z"/>
</g>
</svg>
