<?xml version="1.0" encoding="utf-8"?>
<!-- Generator: Adobe Illustrator 25.0.1, SVG Export Plug-In . SVG Version: 6.00 Build 0)  -->
<svg version="1.1" id="dove" xmlns="http://www.w3.org/2000/svg" xmlns:xlink="http://www.w3.org/1999/xlink" x="0px" y="0px"
	 viewBox="0 0 368.7 331.3" style="enable-background:new 0 0 368.7 331.3;" xml:space="preserve">
<style type="text/css">
	.st0{fill:#CCA579;}
</style>
<g>
	<g>
	</g>
	<g>
	</g>
	<g>
	</g>
	<g>
	</g>
	<g>
	</g>
	<g>
	</g>
	<g>
	</g>
	<g>
	</g>
	<g>
	</g>
	<g>
	</g>
	<g>
	</g>
	<g>
	</g>
	<g>
	</g>
	<g>
	</g>
	<g>
	</g>
</g>
<g>
	<path class="st0" d="M295.2-0.7H74.4c-21.2,0-38.5,17.2-38.5,38.5v238.9c0,11.2,9.1,20.4,20.4,20.4h84.8c4.1,0,7.5-3.3,7.5-7.5
		c0-4.1-3.3-7.5-7.5-7.5H56.3c-3,0-5.5-2.4-5.5-5.5V37.8c0-13,10.6-23.5,23.5-23.5h190.5c-5.2,6.7-8.1,15-8.1,23.5v208.1
		c0,5.4-4.4,9.8-9.8,9.8c-4.2,0-8-2.7-9.3-6.7l-9.7-29.2c-2.9-8.7-10.9-14.5-20.1-14.5c-11.7,0-21.2,9.5-21.2,21.2v4h-32.5
		c-4.1,0-7.5,3.3-7.5,7.5s3.3,7.5,7.5,7.5h32.5v31.1c0,9.7,1.9,19.1,5.6,28l9.5,22.8c1.2,2.8,3.9,4.6,6.9,4.6c1,0,2-0.2,2.9-0.6
		c1.8-0.8,3.3-2.2,4-4c0.8-1.8,0.8-3.9,0-5.7l-9.5-22.8c-3-7.1-4.5-14.6-4.5-22.3v-50.1c0-3.4,2.8-6.2,6.2-6.2
		c2.7,0,5.1,1.7,5.9,4.3l9.7,29.2c3.4,10.1,12.8,16.9,23.5,16.9c13.6,0,24.7-11.1,24.7-24.7V137.6l6.9,6.9
		c15.2,15.2,23.6,35.4,23.6,56.9V270c0,17.6-4,35.4-11.5,51.3c-1.8,3.7-0.2,8.2,3.5,9.9c1,0.5,2.1,0.7,3.2,0.7
		c0.8,0,1.7-0.1,2.5-0.4c1.9-0.7,3.4-2,4.2-3.8c8.5-17.9,13-37.9,13-57.7v-68.6c0-25.5-9.9-49.4-28-67.4l-17.5-17.4v-4.8h41.6
		c11.2,0,20.4-9.1,20.4-20.4V37.8C333.7,16.6,316.4-0.7,295.2-0.7z M318.7,37.8v53.6c0,3-2.4,5.5-5.5,5.5h-41.6V37.8
		c0-13,10.6-23.5,23.5-23.5S318.7,24.8,318.7,37.8z"/>
	<path class="st0" d="M169.3,282.2c-2,0-3.9,0.8-5.3,2.2c-1.4,1.4-2.2,3.3-2.2,5.3c0,2,0.8,3.9,2.2,5.3c1.4,1.4,3.3,2.2,5.3,2.2
		c2,0,3.9-0.8,5.3-2.2c1.4-1.4,2.2-3.3,2.2-5.3c0-2-0.8-3.9-2.2-5.3C173.2,283,171.2,282.2,169.3,282.2z"/>
	<path class="st0" d="M126.8,48.1c0-7.7-6.2-13.9-13.9-13.9H84.5c-7.7,0-13.9,6.2-13.9,13.9v28.4c0,7.7,6.2,13.9,13.9,13.9h28.4
		c7.7,0,13.9-6.2,13.9-13.9V48.1z M111.9,75.5H85.5V49.1h26.4L111.9,75.5z"/>
	<path class="st0" d="M126.8,125.6c0-7.7-6.2-13.9-13.9-13.9H84.5c-7.7,0-13.9,6.2-13.9,13.9V154c0,7.7,6.2,13.9,13.9,13.9h28.4
		c7.7,0,13.9-6.2,13.9-13.9V125.6z M111.9,153H85.5v-26.4h26.4L111.9,153z"/>
	<path class="st0" d="M112.9,189.2H84.5c-7.7,0-13.9,6.2-13.9,13.9v28.4c0,7.7,6.2,13.9,13.9,13.9h28.4c7.7,0,13.9-6.2,13.9-13.9
		v-28.4C126.8,195.4,120.6,189.2,112.9,189.2z M111.9,230.5H85.5v-26.4h26.4L111.9,230.5z"/>
	<path class="st0" d="M228.3,90.4c4.1,0,7.5-3.3,7.5-7.5c0-4.1-3.3-7.5-7.5-7.5h-44.5c-4.1,0-7.5,3.3-7.5,7.5c0,4.1,3.3,7.5,7.5,7.5
		H228.3z"/>
	<path class="st0" d="M154.2,90.4c2,0,3.9-0.8,5.3-2.2s2.2-3.3,2.2-5.3s-0.8-3.9-2.2-5.3c-1.4-1.4-3.3-2.2-5.3-2.2s-3.9,0.8-5.3,2.2
		c-1.4,1.4-2.2,3.3-2.2,5.3s0.8,3.9,2.2,5.3C150.3,89.6,152.3,90.4,154.2,90.4z"/>
	<path class="st0" d="M154.2,167.9h74c4.1,0,7.5-3.3,7.5-7.5c0-4.1-3.3-7.5-7.5-7.5h-74c-4.1,0-7.5,3.3-7.5,7.5
		C146.8,164.6,150.1,167.9,154.2,167.9z"/>
</g>
</svg>
